<svg width="40" height="40" viewBox="0 0 40 40" fill="none" xmlns="http://www.w3.org/2000/svg">
<g id="SVG">
<path id="Vector" d="M33.3333 11.6666H6.66667C4.82572 11.6666 3.33334 13.159 3.33334 15V31.6666C3.33334 33.5076 4.82572 35 6.66667 35H33.3333C35.1743 35 36.6667 33.5076 36.6667 31.6666V15C36.6667 13.159 35.1743 11.6666 33.3333 11.6666Z" stroke="#4F46E5" stroke-width="3.33333" stroke-linecap="round" stroke-linejoin="round"/>
<path id="Vector_2" d="M26.6667 35V8.33333C26.6667 7.44928 26.3155 6.60143 25.6904 5.97631C25.0652 5.35119 24.2174 5 23.3333 5H16.6667C15.7826 5 14.9348 5.35119 14.3096 5.97631C13.6845 6.60143 13.3333 7.44928 13.3333 8.33333V35" stroke="#4F46E5" stroke-width="3.33333" stroke-linecap="round" stroke-linejoin="round"/>
</g>
</svg>
