<svg width="25" height="24" viewBox="0 0 25 24" fill="none" xmlns="http://www.w3.org/2000/svg">
<g id="SVG">
<path id="Vector" d="M20.58 7H4.58002C3.47545 7 2.58002 7.89543 2.58002 9V19C2.58002 20.1046 3.47545 21 4.58002 21H20.58C21.6846 21 22.58 20.1046 22.58 19V9C22.58 7.89543 21.6846 7 20.58 7Z" stroke="#4F46E5" stroke-width="2" stroke-linecap="round" stroke-linejoin="round"/>
<path id="Vector_2" d="M16.58 21V5C16.58 4.46957 16.3693 3.96086 15.9942 3.58579C15.6192 3.21071 15.1105 3 14.58 3H10.58C10.0496 3 9.54088 3.21071 9.1658 3.58579C8.79073 3.96086 8.58002 4.46957 8.58002 5V21" stroke="#4F46E5" stroke-width="2" stroke-linecap="round" stroke-linejoin="round"/>
</g>
</svg>
