<svg width="25" height="24" viewBox="0 0 25 24" fill="none" xmlns="http://www.w3.org/2000/svg">
<g id="SVG">
<path id="Vector" d="M3.38 12C3.38 13.78 3.90785 15.5201 4.89678 17.0001C5.88571 18.4802 7.29132 19.6337 8.93585 20.3149C10.5804 20.9961 12.39 21.1743 14.1358 20.8271C15.8816 20.4798 17.4853 19.6226 18.744 18.364C20.0026 17.1053 20.8598 15.5016 21.2071 13.7558C21.5543 12.01 21.3761 10.2004 20.6949 8.55585C20.0137 6.91131 18.8602 5.50571 17.3801 4.51677C15.9001 3.52784 14.16 3 12.38 3C9.86396 3.00947 7.44897 3.99122 5.64001 5.74L3.38 8" stroke="#4F46E5" stroke-width="2" stroke-linecap="round" stroke-linejoin="round"/>
<path id="Vector_2" d="M3.38 3V8H8.38" stroke="#4F46E5" stroke-width="2" stroke-linecap="round" stroke-linejoin="round"/>
<path id="Vector_3" d="M12.38 7V12L16.38 14" stroke="#4F46E5" stroke-width="2" stroke-linecap="round" stroke-linejoin="round"/>
</g>
</svg>
