<svg width="40" height="40" viewBox="0 0 40 40" fill="none" xmlns="http://www.w3.org/2000/svg">
<g id="SVG">
<path id="Vector" d="M25 3.33337H10C9.11595 3.33337 8.2681 3.68456 7.64298 4.30968C7.01786 4.93481 6.66667 5.78265 6.66667 6.66671V33.3334C6.66667 34.2174 7.01786 35.0653 7.64298 35.6904C8.2681 36.3155 9.11595 36.6667 10 36.6667H30C30.8841 36.6667 31.7319 36.3155 32.357 35.6904C32.9821 35.0653 33.3333 34.2174 33.3333 33.3334V11.6667L25 3.33337Z" stroke="#4F46E5" stroke-width="3.33333" stroke-linecap="round" stroke-linejoin="round"/>
<path id="Vector_2" d="M23.3333 3.33337V10C23.3333 10.8841 23.6845 11.7319 24.3097 12.3571C24.9348 12.9822 25.7826 13.3334 26.6667 13.3334H33.3333" stroke="#4F46E5" stroke-width="3.33333" stroke-linecap="round" stroke-linejoin="round"/>
<path id="Vector_3" d="M16.6667 15H13.3333" stroke="#4F46E5" stroke-width="3.33333" stroke-linecap="round" stroke-linejoin="round"/>
<path id="Vector_4" d="M26.6667 21.6666H13.3333" stroke="#4F46E5" stroke-width="3.33333" stroke-linecap="round" stroke-linejoin="round"/>
<path id="Vector_5" d="M26.6667 28.3334H13.3333" stroke="#4F46E5" stroke-width="3.33333" stroke-linecap="round" stroke-linejoin="round"/>
</g>
</svg>
