<svg width="25" height="24" viewBox="0 0 25 24" fill="none" xmlns="http://www.w3.org/2000/svg">
<g id="SVG">
<path id="Vector" d="M19.77 11H5.77002C4.66545 11 3.77002 11.8954 3.77002 13V20C3.77002 21.1046 4.66545 22 5.77002 22H19.77C20.8746 22 21.77 21.1046 21.77 20V13C21.77 11.8954 20.8746 11 19.77 11Z" stroke="#4F46E5" stroke-width="2" stroke-linecap="round" stroke-linejoin="round"/>
<path id="Vector_2" d="M7.77002 11V7C7.77002 5.67392 8.2968 4.40215 9.23449 3.46447C10.1722 2.52678 11.4439 2 12.77 2C14.0961 2 15.3679 2.52678 16.3056 3.46447C17.2432 4.40215 17.77 5.67392 17.77 7V11" stroke="#4F46E5" stroke-width="2" stroke-linecap="round" stroke-linejoin="round"/>
</g>
</svg>
