<svg width="19" height="18" viewBox="0 0 19 18" fill="none" xmlns="http://www.w3.org/2000/svg">
<g id="SVG">
<path id="Vector" d="M15.45 5.25H3.45001C2.62159 5.25 1.95001 5.92157 1.95001 6.75V14.25C1.95001 15.0784 2.62159 15.75 3.45001 15.75H15.45C16.2784 15.75 16.95 15.0784 16.95 14.25V6.75C16.95 5.92157 16.2784 5.25 15.45 5.25Z" stroke="#6B7280" stroke-width="1.5" stroke-linecap="round" stroke-linejoin="round"/>
<path id="Vector_2" d="M12.45 15.75V3.75C12.45 3.35218 12.292 2.97064 12.0107 2.68934C11.7294 2.40804 11.3478 2.25 10.95 2.25H7.95001C7.55219 2.25 7.17066 2.40804 6.88935 2.68934C6.60805 2.97064 6.45001 3.35218 6.45001 3.75V15.75" stroke="#6B7280" stroke-width="1.5" stroke-linecap="round" stroke-linejoin="round"/>
</g>
</svg>
