<svg width="21" height="21" viewBox="0 0 21 21" fill="none" xmlns="http://www.w3.org/2000/svg">
<path d="M17.5981 6.39327H4.26475C3.34428 6.39327 2.59808 7.13946 2.59808 8.05994V16.3933C2.59808 17.3137 3.34428 18.0599 4.26475 18.0599H17.5981C18.5186 18.0599 19.2647 17.3137 19.2647 16.3933V8.05994C19.2647 7.13946 18.5186 6.39327 17.5981 6.39327Z" stroke="#4F46E5" stroke-width="1.66667" stroke-linecap="round" stroke-linejoin="round"/>
<path d="M14.2648 18.0599V4.7266C14.2648 4.28458 14.0892 3.86065 13.7766 3.54809C13.464 3.23553 13.0401 3.05994 12.5981 3.05994H9.26475C8.82272 3.05994 8.3988 3.23553 8.08624 3.54809C7.77368 3.86065 7.59808 4.28458 7.59808 4.7266V18.0599" stroke="#4F46E5" stroke-width="1.66667" stroke-linecap="round" stroke-linejoin="round"/>
</svg>
