<svg width="21" height="21" viewBox="0 0 21 21" fill="none" xmlns="http://www.w3.org/2000/svg">
<path d="M17.5981 8.89327C17.5981 13.8933 10.9314 18.8933 10.9314 18.8933C10.9314 18.8933 4.26473 13.8933 4.26473 8.89327C4.26473 7.12516 4.96711 5.42946 6.21735 4.17922C7.46759 2.92898 9.16329 2.2266 10.9314 2.2266C12.6995 2.2266 14.3952 2.92898 15.6454 4.17922C16.8957 5.42946 17.5981 7.12516 17.5981 8.89327Z" stroke="#4F46E5" stroke-width="1.66667" stroke-linecap="round" stroke-linejoin="round"/>
<path d="M10.9314 11.3933C12.3121 11.3933 13.4314 10.274 13.4314 8.89327C13.4314 7.51256 12.3121 6.39327 10.9314 6.39327C9.55068 6.39327 8.4314 7.51256 8.4314 8.89327C8.4314 10.274 9.55068 11.3933 10.9314 11.3933Z" stroke="#4F46E5" stroke-width="1.66667" stroke-linecap="round" stroke-linejoin="round"/>
</svg>
