<svg width="19" height="18" viewBox="0 0 19 18" fill="none" xmlns="http://www.w3.org/2000/svg">
<g id="SVG">
<path id="Vector" d="M17.23 12.69V14.94C17.2308 15.1489 17.188 15.3556 17.1044 15.547C17.0207 15.7384 16.898 15.9102 16.744 16.0514C16.5901 16.1926 16.4084 16.3001 16.2105 16.367C16.0127 16.4339 15.803 16.4588 15.595 16.44C13.2871 16.1892 11.0702 15.4006 9.12248 14.1375C7.31035 12.986 5.77398 11.4496 4.62248 9.6375C3.35496 7.6809 2.56616 5.45324 2.31998 3.135C2.30124 2.9276 2.32589 2.71857 2.39236 2.52121C2.45883 2.32386 2.56566 2.14251 2.70606 1.98871C2.84645 1.83491 3.01733 1.71203 3.20782 1.62789C3.39831 1.54375 3.60424 1.50019 3.81248 1.5H6.06248C6.42646 1.49641 6.77932 1.62531 7.0553 1.86265C7.33128 2.09999 7.51154 2.42958 7.56248 2.79C7.65745 3.51005 7.83357 4.21704 8.08748 4.8975C8.18839 5.16594 8.21023 5.45768 8.15041 5.73816C8.09059 6.01863 7.95163 6.27608 7.74998 6.48L6.79748 7.4325C7.86515 9.31016 9.41982 10.8648 11.2975 11.9325L12.25 10.98C12.4539 10.7783 12.7113 10.6394 12.9918 10.5796C13.2723 10.5197 13.564 10.5416 13.8325 10.6425C14.5129 10.8964 15.2199 11.0725 15.94 11.1675C16.3043 11.2189 16.637 11.4024 16.8749 11.6831C17.1127 11.9638 17.2391 12.3222 17.23 12.69Z" stroke="#6B7280" stroke-width="1.66667" stroke-linecap="round" stroke-linejoin="round"/>
</g>
</svg>
