<svg width="21" height="21" viewBox="0 0 21 21" fill="none" xmlns="http://www.w3.org/2000/svg">
<path d="M19.2647 14.6599V17.1599C19.2657 17.392 19.2181 17.6217 19.1252 17.8344C19.0322 18.047 18.8958 18.2379 18.7248 18.3948C18.5538 18.5517 18.3519 18.6712 18.132 18.7455C17.9122 18.8199 17.6792 18.8475 17.4481 18.8266C14.8838 18.548 12.4206 17.6717 10.2564 16.2683C8.24292 14.9888 6.53584 13.2817 5.2564 11.2683C3.84805 9.09427 2.9716 6.6191 2.69806 4.04327C2.67724 3.81283 2.70463 3.58057 2.77848 3.36129C2.85233 3.14201 2.97104 2.94051 3.12704 2.76962C3.28303 2.59873 3.4729 2.46219 3.68456 2.3687C3.89621 2.27522 4.12501 2.22682 4.3564 2.2266H6.8564C7.26082 2.22262 7.65289 2.36584 7.95953 2.62955C8.26617 2.89326 8.46646 3.25948 8.52306 3.65994C8.62858 4.45999 8.82427 5.24554 9.1064 6.0016C9.21852 6.29987 9.24278 6.62403 9.17632 6.93567C9.10986 7.24731 8.95545 7.53336 8.7314 7.75994L7.67306 8.81827C8.85936 10.9046 10.5868 12.632 12.6731 13.8183L13.7314 12.7599C13.958 12.5359 14.244 12.3815 14.5557 12.315C14.8673 12.2486 15.1915 12.2728 15.4897 12.3849C16.2458 12.6671 17.0313 12.8628 17.8314 12.9683C18.2362 13.0254 18.6059 13.2293 18.8702 13.5412C19.1345 13.8531 19.2749 14.2512 19.2647 14.6599Z" stroke="#4F46E5" stroke-width="1.66667" stroke-linecap="round" stroke-linejoin="round"/>
</svg>
